<svg width="651" height="136" viewBox="0 0 651 136" fill="none" xmlns="http://www.w3.org/2000/svg">
    <mask id="mask0_2210_169" style="mask-type:luminance" maskUnits="userSpaceOnUse" x="0" y="0" width="651" height="136">
        <path d="M651 0H0V135.847H651V0Z" fill="white"/>
    </mask>
    <g mask="url(#mask0_2210_169)">
        <path d="M170.479 69.078C169.015 67.8462 167.354 66.8703 165.565 66.1903C163.347 65.324 161.074 64.6028 158.763 64.0299C156.453 63.4756 154.528 62.9423 152.988 62.4301C151.73 62.0439 150.533 61.4822 149.431 60.761C148.678 60.2788 148.065 59.6079 147.653 58.8145C147.305 58.0257 147.138 57.1693 147.162 56.3076C147.164 55.5031 147.354 54.7102 147.717 53.9919C148.079 53.274 148.606 52.6509 149.252 52.1724C150.646 51.0172 152.594 50.4394 155.096 50.4394C157.369 50.4538 159.618 50.8989 161.725 51.7508C164.076 52.7077 166.296 53.9593 168.331 55.4759L172.922 49.0073C170.51 47.06 167.797 45.5191 164.89 44.4443C161.795 43.3625 158.535 42.8325 155.258 42.879C152.993 42.858 150.739 43.1993 148.583 43.8896C146.667 44.4979 144.891 45.4795 143.356 46.7777C141.917 48.0178 140.754 49.5468 139.944 51.2653C139.097 53.0836 138.672 55.07 138.703 57.0758C138.646 59.056 139.014 61.0256 139.782 62.8517C140.497 64.4264 141.571 65.8111 142.918 66.8946C144.45 68.0976 146.171 69.0384 148.011 69.6785C150.276 70.4945 152.591 71.1679 154.94 71.6946C156.814 72.1355 158.664 72.6713 160.483 73.3002C161.666 73.6921 162.791 74.2419 163.827 74.9347C164.551 75.4053 165.13 76.0668 165.502 76.8465C165.818 77.5933 165.973 78.3981 165.958 79.2088C165.984 80.0961 165.787 80.9759 165.383 81.7664C164.979 82.5568 164.382 83.2327 163.648 83.7314C162.108 84.8441 160.01 85.4021 157.354 85.4062C154.533 85.454 151.734 84.8948 149.148 83.766C146.545 82.5568 144.131 80.9751 141.982 79.0703L136.832 85.1923C139.603 87.7454 142.84 89.7413 146.365 91.0721C149.814 92.3534 153.466 93.0029 157.146 92.9897C159.522 93.0123 161.888 92.6835 164.168 92.0138C166.162 91.4352 168.021 90.465 169.636 89.1603C171.152 87.9066 172.366 86.3273 173.187 84.54C174.069 82.5968 174.505 80.4814 174.463 78.3483C174.506 76.5217 174.162 74.7067 173.453 73.0228C172.761 71.507 171.746 70.1611 170.479 69.078Z" fill="black"/>
        <path d="M216.941 71.6081C216.941 76.1056 215.846 79.492 213.656 81.7677C211.465 84.0435 208.457 85.1793 204.63 85.1756C200.762 85.1756 197.73 83.9936 195.535 81.6293C193.341 79.2649 192.246 75.7994 192.25 71.2327V43.5728H183.779V71.6081C183.719 74.767 184.212 77.9119 185.234 80.9015C186.117 83.4175 187.542 85.7089 189.409 87.6129C191.259 89.434 193.495 90.8159 195.951 91.6562C198.704 92.5921 201.596 93.0512 204.503 93.0133C207.446 93.0524 210.375 92.5933 213.165 91.6562C215.641 90.8138 217.889 89.4126 219.736 87.5609C221.619 85.6075 223.055 83.2683 223.946 80.7053C224.997 77.6403 225.503 74.4147 225.441 71.175V43.5728H216.941V71.6081Z" fill="black"/>
        <path d="M269.92 48.0254C268.223 46.5302 266.233 45.4047 264.076 44.7218C261.594 43.9236 258.998 43.5333 256.39 43.5667H237.196V92.2679H245.679V76.6155H255.374C257.947 76.634 260.507 76.2697 262.973 75.5357C265.221 74.8809 267.326 73.8073 269.175 72.3706C270.946 70.9773 272.377 69.1998 273.361 67.1722C274.422 64.91 274.948 62.4336 274.897 59.9353C274.932 57.6204 274.494 55.3228 273.61 53.1831C272.771 51.2148 271.512 49.4542 269.92 48.0254ZM263.372 66.5078C261.489 68.1176 258.919 68.9224 255.663 68.9224H245.679V51.2948H255.663C258.873 51.2948 261.432 52.0279 263.337 53.4951C265.242 54.9622 266.205 57.163 266.224 60.0969C266.266 61.3085 266.031 62.5135 265.536 63.6205C265.042 64.7274 264.301 65.7071 263.372 66.4847V66.5078Z" fill="black"/>
        <path d="M292.148 71.5447H316.562V63.8223H292.148V51.2947H319.692V43.5728H283.66V92.2739H320.039V84.552H292.148V71.5447Z" fill="black"/>
        <path d="M363.132 71.8566C364.515 71.0237 365.748 69.9658 366.782 68.7262C367.822 67.461 368.634 66.0243 369.184 64.4813C370.458 60.5934 370.323 56.3811 368.802 52.583C367.999 50.7049 366.772 49.0387 365.217 47.7142C363.539 46.3224 361.599 45.2814 359.511 44.6529C357.067 43.9029 354.521 43.5386 351.964 43.5728H330.264V92.2744H338.781V75.2991H349.522L361.527 92.2744H371.58L358.415 73.8381C360.072 73.4033 361.661 72.7365 363.132 71.8566ZM338.781 67.7156V51.2951H351.271C354.474 51.2951 356.961 51.9825 358.732 53.3569C360.503 54.7318 361.388 56.7685 361.388 59.4679C361.432 60.6127 361.208 61.7523 360.735 62.7957C360.262 63.8392 359.552 64.7587 358.663 65.4803C356.85 66.9705 354.409 67.7156 351.341 67.7156H338.781Z" fill="black"/>
        <path d="M411.008 69.0781C409.545 67.845 407.883 66.8687 406.094 66.1903C403.877 65.324 401.607 64.6028 399.297 64.03C396.988 63.4757 395.063 62.9424 393.523 62.4301C392.265 62.0427 391.068 61.481 389.966 60.761C389.214 60.2776 388.601 59.6067 388.187 58.8146C387.844 58.0245 387.679 57.169 387.702 56.3076C387.703 55.5036 387.892 54.7107 388.254 53.9928C388.616 53.2744 389.141 52.6509 389.787 52.1724C391.176 51.0173 393.124 50.4395 395.63 50.4395C397.903 50.4543 400.152 50.899 402.259 51.7508C404.61 52.709 406.829 53.9606 408.865 55.476L413.484 49.0073C411.072 47.0613 408.36 45.5204 405.453 44.4443C402.357 43.3621 399.095 42.8321 395.815 42.8791C393.553 42.8585 391.301 43.1997 389.146 43.89C387.24 44.5004 385.474 45.4816 383.949 46.7778C382.509 48.0195 381.345 49.548 380.53 51.2653C379.686 53.0849 379.262 55.0705 379.289 57.0758C379.234 59.0561 379.602 61.0252 380.369 62.8517C381.086 64.4264 382.161 65.8112 383.51 66.8946C385.041 68.0988 386.763 69.0397 388.603 69.6789C390.868 70.4949 393.183 71.1683 395.532 71.6946C397.407 72.1339 399.257 72.6697 401.076 73.3002C402.261 73.6909 403.388 74.2411 404.425 74.9347C405.149 75.4053 405.728 76.0668 406.1 76.8465C406.41 77.5945 406.563 78.399 406.55 79.2088C406.577 80.0961 406.38 80.9764 405.976 81.7668C405.572 82.5577 404.975 83.2332 404.24 83.7314C402.7 84.8442 400.602 85.4026 397.946 85.4063C395.123 85.4537 392.323 84.894 389.735 83.766C387.134 82.5552 384.722 80.9735 382.575 79.0703L377.424 85.1924C380.194 87.7438 383.429 89.7397 386.952 91.0721C390.386 92.3402 394.019 92.984 397.68 92.9724C400.054 92.9951 402.419 92.6662 404.696 91.9965C406.693 91.42 408.554 90.4498 410.17 89.143C411.683 87.8864 412.895 86.308 413.723 84.5227C414.596 82.5882 415.037 80.4835 415.004 78.3598C415.045 76.5333 414.699 74.7192 413.995 73.0344C413.298 71.5124 412.281 70.1619 411.008 69.0781Z" fill="black"/>
        <path d="M461.489 53.1716C460.648 51.2074 459.388 49.4509 457.797 48.0254C456.1 46.5302 454.11 45.4047 451.955 44.7218C449.47 43.9236 446.874 43.5333 444.27 43.5667H425.074V92.2679H433.558V76.6155H443.253C445.824 76.634 448.387 76.2697 450.851 75.5357C453.1 74.8801 455.202 73.8061 457.052 72.3706C458.823 70.9773 460.257 69.1998 461.238 67.1722C462.301 64.91 462.824 62.4336 462.775 59.9353C462.812 57.6163 462.375 55.3146 461.489 53.1716ZM451.25 66.4559C449.367 68.0656 446.796 68.8705 443.541 68.8705H433.558V51.2948H443.541C446.751 51.2948 449.31 52.0279 451.213 53.4951C453.121 54.9622 454.085 57.163 454.101 60.0969C454.143 61.3085 453.908 62.5135 453.413 63.6205C452.919 64.7274 452.181 65.7071 451.25 66.4847V66.4559Z" fill="black"/>
        <path d="M483.924 43.2266L462.494 92.2743H471.258L476.272 80.5149H499.313L504.249 92.2743H513.293L491.867 43.2266H483.924ZM479.404 72.9314L487.764 53.4496L496.181 72.9314H479.404Z" fill="black"/>
        <path d="M549.168 83.5175C546.799 84.7185 544.17 85.3136 541.516 85.2505C539.3 85.2719 537.1 84.8108 535.077 83.8987C533.14 83.0152 531.401 81.7479 529.967 80.1736C528.509 78.5626 527.376 76.6833 526.63 74.6404C525.839 72.4686 525.447 70.171 525.476 67.8594C525.443 65.5589 525.835 63.2729 526.63 61.1134C527.376 59.0915 528.509 57.2349 529.967 55.6495C531.409 54.0929 533.148 52.838 535.077 51.9585C537.1 51.0469 539.3 50.5858 541.516 50.6072C544.1 50.5581 546.654 51.1285 548.97 52.2705C551.228 53.4368 553.313 54.9122 555.163 56.6547L560.651 50.301C559.497 49.1949 558.269 48.172 556.967 47.2397C555.641 46.2972 554.219 45.494 552.724 44.8428C551.104 44.1406 549.415 43.6156 547.684 43.2776C545.678 42.8844 543.638 42.6908 541.599 42.7002C538.109 42.6565 534.652 43.3328 531.438 44.6871C528.468 45.9457 525.777 47.785 523.527 50.0966C521.274 52.4086 519.506 55.1467 518.328 58.1502C515.86 64.4837 515.872 71.5153 518.361 77.8402C519.555 80.8087 521.323 83.5146 523.556 85.8048C525.789 88.076 528.451 89.8836 531.381 91.1245C534.504 92.4466 537.866 93.1113 541.257 93.0767C543.346 93.0981 545.435 92.9044 547.487 92.4989C549.283 92.1391 551.03 91.5572 552.682 90.7663C554.244 90.013 555.723 89.1034 557.103 88.0517C558.512 86.974 559.827 85.776 561.03 84.4708L555.496 78.8968C553.597 80.7081 551.471 82.2614 549.168 83.5175Z" fill="black"/>
        <path d="M578.451 71.5447H602.863V63.8223H578.451V51.2947H605.994V43.5728H569.963V92.2739H606.341V84.552H578.451V71.5447Z" fill="black"/>
        <path d="M649.99 73.0352C649.302 71.5128 648.289 70.1602 647.024 69.0731C645.557 67.84 643.896 66.8637 642.108 66.1849C639.892 65.3182 637.617 64.5966 635.306 64.025C632.994 63.4703 631.07 62.937 629.533 62.4251C628.272 62.039 627.078 61.4768 625.973 60.756C625.223 60.2722 624.61 59.6017 624.198 58.8092C623.851 58.0191 623.687 57.1636 623.711 56.3027C623.711 55.4986 623.901 54.7057 624.263 53.9874C624.626 53.2694 625.149 52.6459 625.796 52.167C627.189 51.0118 629.138 50.4345 631.639 50.4345C633.901 50.4431 636.142 50.8804 638.243 51.7223C640.596 52.6797 642.821 53.9313 644.856 55.4479L649.475 48.9788C647.061 47.0332 644.346 45.4923 641.437 44.4163C638.342 43.3336 635.083 42.804 631.808 42.851C629.546 42.8296 627.292 43.1708 625.137 43.8615C623.221 44.4686 621.441 45.4503 619.904 46.7497C618.47 47.9931 617.308 49.5212 616.493 51.2373C615.648 53.0568 615.224 55.0424 615.252 57.0478C615.195 59.028 615.566 60.9971 616.332 62.8236C617.045 64.3996 618.12 65.7847 619.472 66.8666C621 68.0708 622.722 69.0116 624.56 69.6504C626.826 70.4656 629.138 71.139 631.49 71.6661C633.365 72.1054 635.215 72.6416 637.032 73.2722C638.219 73.6628 639.344 74.2126 640.382 74.9066C641.103 75.3789 641.684 76.04 642.055 76.8185C642.368 77.5665 642.52 78.3705 642.508 79.1807C642.533 80.068 642.335 80.9479 641.931 81.7388C641.527 82.5292 640.93 83.2051 640.196 83.7029C638.639 84.8157 636.538 85.3741 633.901 85.3782C631.078 85.426 628.281 84.8668 625.693 83.7376C623.089 82.5272 620.675 80.9454 618.524 79.0419L613.382 85.1643C616.151 87.7158 619.385 89.7117 622.908 91.0441C626.357 92.3245 630.011 92.974 633.691 92.9617C636.064 92.9847 638.433 92.6554 640.712 91.9853C642.706 91.4096 644.564 90.4395 646.179 89.1322C647.695 87.8773 648.911 86.2985 649.735 84.5115C650.617 82.568 651.049 80.453 651.012 78.3198C651.041 76.5065 650.695 74.7063 649.99 73.0352Z" fill="black"/>
        <path d="M33.0411 59.5255L81.0555 31.8017V19.0776L22.0292 53.1722L22.0234 59.5312L22.0292 65.8903L27.5323 69.0673L33.0411 72.2497V65.8903V59.5255Z" fill="#604CF8"/>
        <path d="M0 40.4479V78.6084L5.50882 81.7912L11.0119 84.9679L16.5207 88.1503L22.0295 91.3327L33.0414 84.9679L70.0439 63.5973L81.0561 57.2441L86.5649 60.4207L92.0679 63.6031L92.0736 69.9621L92.0679 76.3211L92.0736 82.6806L92.0679 89.0396L33.0414 123.128V129.488V135.852L103.085 95.3986V89.0396V82.6806V76.3211V57.2441L97.5767 54.0612L92.0679 50.8788L86.5649 47.7022L81.0561 44.5198L70.0439 50.8788L33.0414 72.2494L22.0295 78.6084L16.5207 75.426L11.0119 72.2494V53.1719V46.8071L70.0439 12.7183V6.35915V0L0 40.4479Z" fill="#604CF8"/>
        <path d="M70.0437 76.3212L22.0292 104.051L22.0234 110.41L22.0292 116.769L81.0555 82.6802V76.3212V69.9621L75.5525 66.7797L70.0437 63.5969V69.9621V76.3212Z" fill="#604CF8"/>
    </g>
</svg>
