<svg width="38" height="38" viewBox="0 0 38 38" fill="none" xmlns="http://www.w3.org/2000/svg">
<rect x="0.866028" y="0.394043" width="37.0667" height="37.0667" rx="6.95" fill="#E5FF76"/>
<g clip-path="url(#clip0_15_1206)">
<path d="M7.86603 30.3941H20.1991L7.86603 18.061V30.3941Z" fill="#000"/>
<path d="M7.86603 6.39404V15.6636L22.5964 30.394H31.866L7.86603 6.39404Z" fill="#000"/>
<path d="M21.5913 12.9526C23.3419 12.9526 24.7615 14.3713 24.7615 16.1228C24.7615 17.4144 23.9882 18.526 22.8798 19.0186L27.6168 23.7555C29.8703 21.9744 31.3164 19.2178 31.3164 16.1228C31.3164 11.9017 28.6277 8.30922 24.8689 6.96498C23.8449 6.59771 22.7414 6.39795 21.5913 6.39795H10.259L16.8136 12.9526H21.5913Z" fill="#000"/>
</g>
<defs>
<clipPath id="clip0_15_1206">
<rect width="24" height="24" fill="white" transform="translate(7.86603 6.39404)"/>
</clipPath>
</defs>
</svg>
