<svg width="291" height="76" viewBox="0 0 291 76" fill="none" xmlns="http://www.w3.org/2000/svg">
<path d="M68.1833 31.6891C69.0833 30.2224 70.2499 29.0724 71.6833 28.2391C73.1499 27.4058 74.8166 26.9891 76.6833 26.9891V34.3391H74.8333C72.6333 34.3391 70.9666 34.8558 69.8333 35.8891C68.7333 36.9224 68.1833 38.7224 68.1833 41.2891V55.0891H61.1833V27.3891H68.1833V31.6891ZM93.6981 55.5391C91.0315 55.5391 88.6315 54.9558 86.4981 53.7891C84.3648 52.5891 82.6815 50.9058 81.4481 48.7391C80.2481 46.5724 79.6481 44.0724 79.6481 41.2391C79.6481 38.4058 80.2648 35.9058 81.4981 33.7391C82.7648 31.5724 84.4815 29.9058 86.6481 28.7391C88.8148 27.5391 91.2315 26.9391 93.8981 26.9391C96.5648 26.9391 98.9815 27.5391 101.148 28.7391C103.315 29.9058 105.015 31.5724 106.248 33.7391C107.515 35.9058 108.148 38.4058 108.148 41.2391C108.148 44.0724 107.498 46.5724 106.198 48.7391C104.931 50.9058 103.198 52.5891 100.998 53.7891C98.8315 54.9558 96.3981 55.5391 93.6981 55.5391ZM93.6981 49.4391C94.9648 49.4391 96.1481 49.1391 97.2481 48.5391C98.3815 47.9058 99.2815 46.9724 99.9481 45.7391C100.615 44.5058 100.948 43.0058 100.948 41.2391C100.948 38.6058 100.248 36.5891 98.8481 35.1891C97.4815 33.7558 95.7981 33.0391 93.7981 33.0391C91.7981 33.0391 90.1148 33.7558 88.7481 35.1891C87.4148 36.5891 86.7481 38.6058 86.7481 41.2391C86.7481 43.8724 87.3981 45.9058 88.6981 47.3391C90.0315 48.7391 91.6981 49.4391 93.6981 49.4391ZM111.483 41.2391C111.483 38.3724 112.066 35.8724 113.233 33.7391C114.4 31.5724 116.016 29.9058 118.083 28.7391C120.15 27.5391 122.516 26.9391 125.183 26.9391C128.616 26.9391 131.45 27.8058 133.683 29.5391C135.95 31.2391 137.466 33.6391 138.233 36.7391H130.683C130.283 35.5391 129.6 34.6058 128.633 33.9391C127.7 33.2391 126.533 32.8891 125.133 32.8891C123.133 32.8891 121.55 33.6224 120.383 35.0891C119.216 36.5224 118.633 38.5724 118.633 41.2391C118.633 43.8724 119.216 45.9224 120.383 47.3891C121.55 48.8224 123.133 49.5391 125.133 49.5391C127.966 49.5391 129.816 48.2724 130.683 45.7391H138.233C137.466 48.7391 135.95 51.1224 133.683 52.8891C131.416 54.6558 128.583 55.5391 125.183 55.5391C122.516 55.5391 120.15 54.9558 118.083 53.7891C116.016 52.5891 114.4 50.9224 113.233 48.7891C112.066 46.6224 111.483 44.1058 111.483 41.2391ZM159.761 55.0891L150.361 43.2891V55.0891H143.361V18.0891H150.361V39.1391L159.661 27.3891H168.761L156.561 41.2891L168.861 55.0891H159.761ZM183.16 55.5391C180.894 55.5391 178.86 55.1391 177.06 54.3391C175.26 53.5058 173.827 52.3891 172.76 50.9891C171.727 49.5891 171.16 48.0391 171.06 46.3391H178.11C178.244 47.4058 178.76 48.2891 179.66 48.9891C180.594 49.6891 181.744 50.0391 183.11 50.0391C184.444 50.0391 185.477 49.7724 186.21 49.2391C186.977 48.7058 187.36 48.0224 187.36 47.1891C187.36 46.2891 186.894 45.6224 185.96 45.1891C185.06 44.7224 183.61 44.2224 181.61 43.6891C179.544 43.1891 177.844 42.6724 176.51 42.1391C175.21 41.6058 174.077 40.7891 173.11 39.6891C172.177 38.5891 171.71 37.1058 171.71 35.2391C171.71 33.7058 172.144 32.3058 173.01 31.0391C173.91 29.7724 175.177 28.7724 176.81 28.0391C178.477 27.3058 180.427 26.9391 182.66 26.9391C185.96 26.9391 188.594 27.7724 190.56 29.4391C192.527 31.0724 193.61 33.2891 193.81 36.0891H187.11C187.01 34.9891 186.544 34.1224 185.71 33.4891C184.91 32.8224 183.827 32.4891 182.46 32.4891C181.194 32.4891 180.21 32.7224 179.51 33.1891C178.844 33.6558 178.51 34.3058 178.51 35.1391C178.51 36.0724 178.977 36.7891 179.91 37.2891C180.844 37.7558 182.294 38.2391 184.26 38.7391C186.26 39.2391 187.91 39.7558 189.21 40.2891C190.51 40.8224 191.627 41.6558 192.56 42.7891C193.527 43.8891 194.027 45.3558 194.06 47.1891C194.06 48.7891 193.61 50.2224 192.71 51.4891C191.844 52.7558 190.577 53.7558 188.91 54.4891C187.277 55.1891 185.36 55.5391 183.16 55.5391ZM212.106 55.5391C209.44 55.5391 207.04 54.9558 204.906 53.7891C202.773 52.5891 201.09 50.9058 199.856 48.7391C198.656 46.5724 198.056 44.0724 198.056 41.2391C198.056 38.4058 198.673 35.9058 199.906 33.7391C201.173 31.5724 202.89 29.9058 205.056 28.7391C207.223 27.5391 209.64 26.9391 212.306 26.9391C214.973 26.9391 217.39 27.5391 219.556 28.7391C221.723 29.9058 223.423 31.5724 224.656 33.7391C225.923 35.9058 226.556 38.4058 226.556 41.2391C226.556 44.0724 225.906 46.5724 224.606 48.7391C223.34 50.9058 221.606 52.5891 219.406 53.7891C217.24 54.9558 214.806 55.5391 212.106 55.5391ZM212.106 49.4391C213.373 49.4391 214.556 49.1391 215.656 48.5391C216.79 47.9058 217.69 46.9724 218.356 45.7391C219.023 44.5058 219.356 43.0058 219.356 41.2391C219.356 38.6058 218.656 36.5891 217.256 35.1891C215.89 33.7558 214.206 33.0391 212.206 33.0391C210.206 33.0391 208.523 33.7558 207.156 35.1891C205.823 36.5891 205.156 38.6058 205.156 41.2391C205.156 43.8724 205.806 45.9058 207.106 47.3391C208.44 48.7391 210.106 49.4391 212.106 49.4391ZM238.691 18.0891V55.0891H231.691V18.0891H238.691ZM249.157 24.0891C247.924 24.0891 246.89 23.7058 246.057 22.9391C245.257 22.1391 244.857 21.1558 244.857 19.9891C244.857 18.8224 245.257 17.8558 246.057 17.0891C246.89 16.2891 247.924 15.8891 249.157 15.8891C250.39 15.8891 251.407 16.2891 252.207 17.0891C253.04 17.8558 253.457 18.8224 253.457 19.9891C253.457 21.1558 253.04 22.1391 252.207 22.9391C251.407 23.7058 250.39 24.0891 249.157 24.0891ZM252.607 27.3891V55.0891H245.607V27.3891H252.607ZM257.723 41.1391C257.723 38.3391 258.273 35.8558 259.373 33.6891C260.506 31.5224 262.04 29.8558 263.973 28.6891C265.906 27.5224 268.056 26.9391 270.423 26.9391C272.223 26.9391 273.94 27.3391 275.573 28.1391C277.206 28.9058 278.506 29.9391 279.473 31.2391V18.0891H286.573V55.0891H279.473V50.9891C278.606 52.3558 277.39 53.4558 275.823 54.2891C274.256 55.1224 272.44 55.5391 270.373 55.5391C268.04 55.5391 265.906 54.9391 263.973 53.7391C262.04 52.5391 260.506 50.8558 259.373 48.6891C258.273 46.4891 257.723 43.9724 257.723 41.1391ZM279.523 41.2391C279.523 39.5391 279.19 38.0891 278.523 36.8891C277.856 35.6558 276.956 34.7224 275.823 34.0891C274.69 33.4224 273.473 33.0891 272.173 33.0891C270.873 33.0891 269.673 33.4058 268.573 34.0391C267.473 34.6724 266.573 35.6058 265.873 36.8391C265.206 38.0391 264.873 39.4724 264.873 41.1391C264.873 42.8058 265.206 44.2724 265.873 45.5391C266.573 46.7724 267.473 47.7224 268.573 48.3891C269.706 49.0558 270.906 49.3891 272.173 49.3891C273.473 49.3891 274.69 49.0724 275.823 48.4391C276.956 47.7724 277.856 46.8391 278.523 45.6391C279.19 44.4058 279.523 42.9391 279.523 41.2391Z" fill="#F7F7F7"/>
<g clip-path="url(#clip0_43_286)">
<path d="M0.335022 62.4164H23.9734L0.335022 38.7781V62.4164Z" fill="#E5FF76"/>
<path d="M0.335022 16.4165V34.1831L28.5683 62.4163H46.335L0.335022 16.4165Z" fill="#E5FF76"/>
<path d="M26.6422 28.9871C29.9974 28.9871 32.7184 31.7062 32.7184 35.0633C32.7184 37.5389 31.2361 39.6693 29.1118 40.6135L38.191 49.6926C42.5103 46.2789 45.2819 40.9954 45.2819 35.0633C45.2819 26.9729 40.1285 20.0873 32.9242 17.5109C30.9615 16.8069 28.8465 16.4241 26.6422 16.4241H4.92181L17.4849 28.9871H26.6422Z" fill="#E5FF76"/>
</g>
<defs>
<clipPath id="clip0_43_286">
<rect width="46" height="45.9998" fill="white" transform="translate(0.333252 16.4165)"/>
</clipPath>
</defs>
</svg>
