<svg width="1059" height="203" viewBox="0 0 1059 203" fill="none" xmlns="http://www.w3.org/2000/svg">
    <g clip-path="url(#clip0_2210_47)">
        <path d="M46.83 0H2C0.89543 0 0 0.89543 0 2V200.13C0 201.235 0.89543 202.13 2 202.13H46.83C47.9346 202.13 48.83 201.235 48.83 200.13V2C48.83 0.89543 47.9346 0 46.83 0Z" fill="#F1F1F1"/>
        <path d="M96.23 72.68H60.48C59.3754 72.68 58.48 73.5754 58.48 74.68V128.6C58.48 129.705 59.3754 130.6 60.48 130.6H96.23C97.3346 130.6 98.23 129.705 98.23 128.6V74.68C98.23 73.5754 97.3346 72.68 96.23 72.68Z" fill="white"/>
        <path d="M329.02 0H263.75C262.645 0 261.75 0.89543 261.75 2V55.92C261.75 57.0246 262.645 57.92 263.75 57.92H329.02C330.125 57.92 331.02 57.0246 331.02 55.92V2C331.02 0.89543 330.125 0 329.02 0Z" fill="white"/>
        <path d="M249.53 144.22H184.26C183.155 144.22 182.26 145.115 182.26 146.22V200.14C182.26 201.245 183.155 202.14 184.26 202.14H249.53C250.634 202.14 251.53 201.245 251.53 200.14V146.22C251.53 145.115 250.634 144.22 249.53 144.22Z" fill="#F1F1F1"/>
        <path d="M155.28 0H110.45C109.345 0 108.45 0.89543 108.45 2V200.13C108.45 201.235 109.345 202.13 110.45 202.13H155.28C156.385 202.13 157.28 201.235 157.28 200.13V2C157.28 0.89543 156.385 0 155.28 0Z" fill="white"/>
        <path d="M402.84 0H358.01C356.905 0 356.01 0.89543 356.01 2V200.13C356.01 201.235 356.905 202.13 358.01 202.13H402.84C403.944 202.13 404.84 201.235 404.84 200.13V2C404.84 0.89543 403.944 0 402.84 0Z" fill="white"/>
        <path d="M249.26 8.6576e-09H226.55C226.389 0.00127247 226.228 0.0180159 226.07 0.05C225.49 0.05 224.9 0.05 224.28 0.05C201.07 0.05 182.28 21.66 182.28 48.31C182.28 74.96 201.09 96.58 224.28 96.58C224.9 96.58 225.49 96.58 226.07 96.52C226.227 96.5603 226.388 96.5804 226.55 96.58H249.26C249.863 96.5774 250.44 96.336 250.866 95.9087C251.291 95.4814 251.53 94.903 251.53 94.3V2.3C251.534 1.99938 251.478 1.70097 251.366 1.42209C251.253 1.14321 251.087 0.889416 250.876 0.675439C250.664 0.461462 250.413 0.291567 250.135 0.175618C249.858 0.0596682 249.56 -2.62474e-05 249.26 8.6576e-09Z" fill="white"/>
        <path d="M264 105.61H286.72C286.88 105.595 287.04 105.595 287.2 105.61C287.78 105.61 288.37 105.61 288.99 105.61C312.19 105.61 330.99 127.22 330.99 153.87C330.99 180.52 312.18 202.13 288.99 202.13C288.37 202.13 287.78 202.13 287.2 202.13C287.04 202.145 286.88 202.145 286.72 202.13H264C263.399 202.127 262.823 201.887 262.398 201.462C261.973 201.037 261.733 200.461 261.73 199.86V107.86C261.738 107.262 261.98 106.691 262.405 106.271C262.829 105.85 263.402 105.613 264 105.61Z" fill="white"/>
        <path d="M1056.54 171.49H481.61C480.977 171.421 480.393 171.122 479.968 170.648C479.543 170.175 479.308 169.561 479.308 168.925C479.308 168.289 479.543 167.675 479.968 167.202C480.393 166.728 480.977 166.428 481.61 166.36H1056.54C1057.17 166.428 1057.76 166.728 1058.18 167.202C1058.61 167.675 1058.84 168.289 1058.84 168.925C1058.84 169.561 1058.61 170.175 1058.18 170.648C1057.76 171.122 1057.17 171.421 1056.54 171.49Z" fill="white"/>
        <path d="M490.77 60.19H482.16V149.26H490.77V60.19Z" fill="white"/>
        <path d="M499.46 60.19V149.26H507.56V82.59L552.98 150.5H554.87V60.19H546.76V124.44L502.36 60.19H499.46Z" fill="white"/>
        <path d="M588.53 101.81L582.47 98.29C579.637 96.7614 576.987 94.9162 574.57 92.79C573.185 91.3647 572.122 89.6599 571.45 87.79C570.688 85.6844 570.312 83.4589 570.34 81.22C570.206 77.7263 571.311 74.2976 573.46 71.54C574.514 70.2747 575.845 69.2692 577.35 68.6015C578.856 67.9338 580.495 67.6219 582.14 67.69C584.892 67.7469 587.608 68.3307 590.14 69.41C592.067 70.1466 593.9 71.11 595.6 72.28L598.11 63C595.01 60.1 589.56 58.63 581.89 58.63C579.149 58.5575 576.426 59.0971 573.919 60.2094C571.413 61.3217 569.186 62.9787 567.4 65.06C563.64 69.34 561.73 74.84 561.73 81.38C561.6 86.1921 562.604 90.9673 564.66 95.32C566.58 99.13 570.04 102.48 574.94 105.32L580.89 108.72C586.42 111.91 589.79 114.81 591.2 117.58C592.585 120.32 593.298 123.35 593.28 126.42C593.419 130.3 592.067 134.087 589.5 137C588.237 138.384 586.689 139.477 584.963 140.204C583.236 140.931 581.372 141.274 579.5 141.21C576.806 141.12 574.153 140.523 571.68 139.45C569.383 138.55 567.228 137.324 565.28 135.81L562.1 145.64C566.655 149.127 572.265 150.951 578 150.81C585.22 150.81 591.06 148.49 595.35 143.93C599.634 139.399 601.962 133.364 601.83 127.13C601.83 121.01 600.83 115.92 598.83 111.98C596.83 108.04 593.42 104.65 588.53 101.81Z" fill="white"/>
        <path d="M631.16 149.26H639.77V69.83H664.35V60.19H607.64V69.83H631.16V149.26Z" fill="white"/>
        <path d="M742.15 60.19H733.54V149.26H775.56V139.62H742.15V60.19Z" fill="white"/>
        <path d="M793.14 60.19H784.53V149.26H826.55V139.62H793.14V60.19Z" fill="white"/>
        <path d="M917.1 149.26H925.71V69.83H950.29V60.19H893.58V69.83H917.1V149.26Z" fill="white"/>
        <path d="M965.06 60.19H956.45V149.26H965.06V60.19Z" fill="white"/>
        <path d="M981.73 108.87H1008.3V99.85H981.73V69.83H1010.26V60.19H973.12V149.26H1009.71V139.62H981.73V108.87Z" fill="white"/>
        <path d="M1055.85 112C1053.85 108.09 1050.42 104.67 1045.52 101.83L1039.46 98.31C1036.63 96.7742 1033.98 94.9296 1031.56 92.81C1030.18 91.3847 1029.11 89.6799 1028.44 87.81C1027.68 85.7031 1027.31 83.4785 1027.33 81.24C1027.2 77.7463 1028.3 74.3176 1030.45 71.56C1033.98 67.29 1040.01 66.56 1047.08 69.43C1049.01 70.1666 1050.84 71.13 1052.54 72.3L1055.1 63C1052.01 60.1 1046.55 58.63 1038.88 58.63C1036.14 58.5583 1033.42 59.0981 1030.91 60.2104C1028.4 61.3226 1026.18 62.9793 1024.39 65.06C1020.63 69.35 1018.72 74.84 1018.72 81.38C1018.59 86.1921 1019.59 90.9673 1021.65 95.32C1023.57 99.13 1027.03 102.48 1031.93 105.32L1037.93 108.72C1043.46 111.91 1046.83 114.81 1048.24 117.58C1049.63 120.32 1050.34 123.35 1050.32 126.42C1050.44 130.305 1049.08 134.09 1046.5 137C1045.23 138.381 1043.69 139.471 1041.96 140.198C1040.23 140.925 1038.37 141.27 1036.5 141.21C1033.81 141.12 1031.15 140.523 1028.68 139.45C1026.38 138.552 1024.23 137.326 1022.28 135.81L1019.1 145.64C1023.66 149.15 1029.29 150.989 1035.04 150.85C1042.26 150.85 1048.1 148.53 1052.39 143.97C1056.68 139.443 1059.01 133.406 1058.88 127.17C1058.83 121 1057.83 115.92 1055.85 112Z" fill="white"/>
        <path d="M690.62 59L655.86 149.27H664.76L671.39 132.14H709.73L716.16 149.31H725L691.24 59H690.62ZM674.62 123.92L690.9 81.73L706.66 123.87L674.62 123.92Z" fill="white"/>
        <path d="M869.43 59L835.52 149.27H844.17L850.64 132.14H888.07L894.34 149.31H903L870 59H869.43ZM853.74 123.92L869.68 81.73L885.07 123.92H853.74Z" fill="white"/>
    </g>
    <defs>
        <clipPath id="clip0_2210_47">
            <rect width="1058.83" height="202.13" fill="white"/>
        </clipPath>
    </defs>
</svg>
