<svg xmlns="http://www.w3.org/2000/svg" height="100%" viewBox="0 0 634.7093 216.3285" class="fill-current text-black"><g id="Laag_2" data-name="Laag 2"><g id="Laag_1-2" data-name="Laag 1"><path d="M73.6207,215.72a1.7142,1.7142,0,0,0,2.6193,0c4.4679-5.2652,12.2568-14.6224,21.2084-26.3569a191.5144,191.5144,0,0,1-22.7174,1.3284,191.498,191.498,0,0,1-22.3187-1.3284C53.6012,192.91,65.4343,206.0736,73.6207,215.72Z"></path><path d="M74.93,4.7233C33.5329,4.8084,0,37.3962,0,77.5878c0,1.4271.0534,2.8419.1368,4.2487A100.4355,100.4355,0,0,0,1.4361,96.1924a108.066,108.066,0,0,0,3.1656,13.5135c3.2727,10.9011,8.0765,20.81,14.4091,31.4478a430.57,430.57,0,0,0,25.3158,37.3677c-.0423-.4236-.068-.8527-.068-1.2886,0-6.4578,4.7758-11.6928,10.6672-11.6928a10.3758,10.3758,0,0,1,8.6135,4.8094,1.5831,1.5831,0,0,0,2.6054,0,10.1179,10.1179,0,0,1,17.18-.0753,1.6033,1.6033,0,0,0,2.6248,0,10.3707,10.3707,0,0,1,8.5666-4.7341c5.8912,0,10.6671,5.235,10.6671,11.6928a12.8437,12.8437,0,0,1-.098,1.5039h.2888a431.38,431.38,0,0,0,25.4758-37.583c6.3327-10.6381,11.1365-20.5467,14.4091-31.4478a108.066,108.066,0,0,0,3.1656-13.5135,100.421,100.421,0,0,0,1.2993-14.3559c.0834-1.4068.1369-2.8216.1369-4.2487C149.8608,37.3962,116.3278,4.8084,74.93,4.7233Zm0,131.5063a57.1189,57.1189,0,1,1,57.1189-57.1189A57.1189,57.1189,0,0,1,74.93,136.23Z"></path><path d="M123.44,40.2207a26.8316,26.8316,0,0,0-15.3348-8.5563c-5.8055.2808-17.1665,1.7854-27.1436,10.2952a42.4845,42.4845,0,0,0-5.9368,6.2184A42.4845,42.4845,0,0,0,69.0875,41.96C59.11,33.45,47.7493,31.9452,41.9439,31.6644a26.8319,26.8319,0,0,0-15.3348,8.5563c-8.6468,9.7851-6.954,22.42-6.6994,24.1129a24.8413,24.8413,0,0,1,9-11.368,23.0583,23.0583,0,0,1,15.35-3.833,23.3549,23.3549,0,0,1,14.4831,7.5061,21.5155,21.5155,0,0,1,4.9993,8.9566c.5811,2.2448.5794,3.9449,1.071,7.1652a32.7744,32.7744,0,0,0,.7731,4.1643,21.6933,21.6933,0,0,0,2.2087,5.2611,18.1339,18.1339,0,0,0,7.2294,6.6127,18.1345,18.1345,0,0,0,7.2294-6.6127,21.6933,21.6933,0,0,0,2.2087-5.2611,32.7923,32.7923,0,0,0,.7731-4.1643c.4917-3.22.49-4.92,1.071-7.1652a21.5155,21.5155,0,0,1,4.9993-8.9566,23.3549,23.3549,0,0,1,14.4831-7.5061,23.0583,23.0583,0,0,1,15.35,3.833,24.842,24.842,0,0,1,9,11.368C130.3935,62.64,132.0863,50.0058,123.44,40.2207Z"></path><path d="M108.7122,59.5139a10.4507,10.4507,0,0,0-1.3616.0993,5.6641,5.6641,0,0,1-8.6051,7.3674,10.3887,10.3887,0,1,0,9.9667-7.4667Z"></path><path d="M145.5541,9.4467A42.2357,42.2357,0,0,0,143.6648,0c-8.7346,13.9613-18.2236,21.33-25.506,25.506-10.26,5.8833-20.4164,7.8807-34.008,18.8933-5.0222,4.0693-8.9128,7.2241-9.4466,8.812v.6347c.77,2.0633,16.6115-3.5852,35.8973-6.6127,17.673-2.7744,18.8165-.2991,23.6166-3.7787C144.3542,36.107,146.4109,19.8248,145.5541,9.4467Z"></path><path d="M4.7989,9.4467A42.2349,42.2349,0,0,1,6.6883,0c8.7345,13.9613,18.2236,21.33,25.5059,25.506,10.26,5.8833,20.4164,7.8807,34.008,18.8933,5.0223,4.0693,8.9128,7.2241,9.4467,8.812v.6347c-.77,2.0633-16.6116-3.5852-35.8973-6.6127-17.6731-2.7744-18.8166-.2991-23.6167-3.7787C5.9989,36.107,3.9422,19.8248,4.7989,9.4467Z"></path><path d="M41.6409,59.5139a10.4479,10.4479,0,0,0-1.3615.0993,5.6641,5.6641,0,0,1-8.6051,7.3674,10.3886,10.3886,0,1,0,9.9666-7.4667Z"></path><path d="M228.2621,143.6442c-5.9522,0-9.6719-2.604-11.5323-6.789l-4.7431-10.4161c-2.5108-5.4873-4.2783-6.6035-8.4629-7.0683l-2.79-.2788v24.0874h-6.79c-6.8818,0-10.8808-4.1851-10.8808-10.1372V80.8679c4.4638-1.5811,14.3222-2.79,19.2519-2.79h7.1611c13.7637,0,23.5293,7.5332,23.5293,19.1582,0,8.5567-5.58,15.8106-11.7187,17.2056,3.0693,1.395,4.65,3.72,7.0683,8.8354l4.93,10.416a48.19,48.19,0,0,0,4.4639,7.8125v.4649C235.6088,143.0866,232.0755,143.6442,228.2621,143.6442ZM204.2679,92.028a32.7629,32.7629,0,0,0-3.5341.3721v14.1362a55.25,55.25,0,0,0,7.0673.2793,7.24,7.24,0,0,0,7.5332-7.44c0-4.65-2.3242-7.3472-7.4394-7.3472Z"></path><path d="M265.6478,123.9279h-7.6269c1.0234,5.1152,5.2089,7.5332,12.5556,7.5332,8.1846,0,13.3-1.3022,16.1826-3.2549h.6514v4.0918c0,6.51-5.3017,12.37-19.9033,12.37-17.67,0-26.9707-11.9043-26.9707-26.0411,0-15.5312,10.51-28.18,26.32-28.18,13.3916,0,23.8086,7.5332,23.8086,20.5537C290.6654,121.2306,282.9457,123.9279,265.6478,123.9279Zm1.209-20.2744c-6.2314,0-8.8359,3.999-9.3008,8.9282h6.8828c8.37,0,9.8575-1.3022,9.8575-3.5342C274.2963,106.4435,271.972,103.6535,266.8568,103.6535Z"></path><path d="M327.12,143.9235h-4.7432c-5.8584,0-8.6484-2.79-11.625-7.44-6.8818-10.6953-14.0429-29.4815-16.2754-44.4551h9.2071c5.7666,0,9.3935,4.0923,10.0449,7.3472a115.8156,115.8156,0,0,0,8.4629,24.6455c3.2549-6.0449,7.8125-20.5532,9.6719-31.9927h8.4638c4.4639,0,7.1612,2.6973,7.1612,6.9751,0,3.72-1.209,7.44-2.418,10.9746C341.7211,119.7429,333.2582,137.1345,327.12,143.9235Z"></path><path d="M363.017,89.1452c-5.1153,0-9.3008-3.9063-9.3008-8.7422s4.1855-8.7422,9.3008-8.7422a8.7539,8.7539,0,1,1,0,17.4844Zm8.37,54.7783c-9.3936,0-16.74-4.65-16.74-16.7407V93.6091h4.3711c10.044,0,13.2989,2.8833,13.2989,12.1836v18.7861c0,4.5571,2.14,5.9521,7.0683,5.9521h2.1387v5.208C381.5238,141.8771,376.8744,143.9235,371.3871,143.9235Z"></path><path d="M406.3548,144.6677c-13.95,0-18.9726-5.1153-18.9726-12.5557v-5.1152h.4658c3.3477,2.5112,8.4629,4.4643,15.7168,4.4643,6.417,0,8.4639-1.4883,8.4639-3.999,0-2.3252-1.21-3.2554-11.8115-4.7432-9.2071-1.3022-14.044-5.4873-14.044-13.6714,0-12.2763,11.626-18.5073,23.3438-18.5073,11.3466,0,18.2285,4.5571,18.2285,12.1831v5.3013h-.4649c-3.4414-2.5112-8.8349-4.2783-15.7177-4.2783-6.6026,0-8.7422,1.7671-8.7422,3.9062,0,1.9531,1.1162,2.604,11.8115,4.3711,8.5566,1.395,14.3223,6.0449,14.3223,14.6943C428.9545,137.6921,420.3988,144.6677,406.3548,144.6677Z"></path><path d="M461.5043,123.9279h-7.627c1.0234,5.1152,5.209,7.5332,12.5557,7.5332,8.1845,0,13.3-1.3022,16.1826-3.2549h.65v4.0918c0,6.51-5.3008,12.37-19.9024,12.37-17.67,0-26.9707-11.9043-26.9707-26.0411,0-15.5312,10.51-28.18,26.32-28.18,13.3916,0,23.8086,7.5332,23.8086,20.5537C486.5218,121.2306,478.8021,123.9279,461.5043,123.9279Zm1.2089-20.2744c-6.2314,0-8.8359,3.999-9.3007,8.9282h6.8828c8.37,0,9.8574-1.3022,9.8574-3.5342C470.1527,106.4435,467.8285,103.6535,462.7132,103.6535Z"></path><path d="M568.2162,143.1794c-6.1377,0-10.6026-3.3482-10.6026-10.0445,0-5.7661-.5576-22.2275-1.581-31.7133l-8.835,26.97a87.8813,87.8813,0,0,1-6.417,14.7876h-4.93c-6.0449,0-10.788-4.5572-14.7871-17.5777l-3.2549-10.6948c-1.581-5.3013-3.5341-10.9746-4.5576-13.6714-1.1152,10.9741-1.9521,31.3418-1.9521,41.9439h-6.6035c-5.3946,0-10.3233-3.72-10.3233-10.0445,0-18.414,2.5108-40.6416,5.58-54.1269H506.09c10.2305,0,15.4385,4.8359,17.7637,10.5093l5.0224,12.4619a174.5545,174.5545,0,0,1,6.2315,18.1357,152.4976,152.4976,0,0,1,5.3008-15.0664l6.1377-14.6943a31.1577,31.1577,0,0,1,7.72-11.3462h3.2549c9.3,0,13.7646,5.1147,14.9736,14.3223a414.5645,414.5645,0,0,1,3.2549,49.8491Z"></path><path d="M609.6918,123.9279h-7.627c1.0234,5.1152,5.209,7.5332,12.5557,7.5332,8.1845,0,13.3-1.3022,16.1826-3.2549h.65v4.0918c0,6.51-5.3008,12.37-19.9024,12.37-17.67,0-26.9707-11.9043-26.9707-26.0411,0-15.5312,10.51-28.18,26.32-28.18,13.3916,0,23.8086,7.5332,23.8086,20.5537C634.7093,121.2306,626.99,123.9279,609.6918,123.9279Zm1.2089-20.2744c-6.2314,0-8.8359,3.999-9.3007,8.9282h6.8828c8.37,0,9.8574-1.3022,9.8574-3.5342C618.34,106.4435,616.016,103.6535,610.9007,103.6535Z"></path></g></g></svg>