<svg width="458" height="181" viewBox="0 0 458 181" fill="none" xmlns="http://www.w3.org/2000/svg">
    <mask id="mask0_2225_2" style="mask-type:luminance" maskUnits="userSpaceOnUse" x="0" y="0" width="458" height="181">
        <path d="M457.647 0H0V180.74H457.647V0Z" fill="white"/>
    </mask>
    <g mask="url(#mask0_2225_2)">
        <path d="M264.933 0H248.303L220.746 75.4512H237.185L243.172 58.5362H269.969L275.766 75.4512H292.49L265.218 0.855185L264.933 0ZM265.503 45.7077H247.638L256.476 20.1456L265.503 45.7077Z" fill="black"/>
        <path d="M316.533 7.41211H300.758V21.2861H291.731V34.8748H300.568V56.1607C300.267 58.9106 300.599 61.693 301.538 64.2952C302.477 66.8974 303.998 69.2507 305.985 71.1745C309.929 74.1828 314.81 75.6972 319.764 75.4513H330.027V61.9574H322.33C319.383 61.9574 318.148 61.3872 317.578 60.817C317.008 60.2469 316.343 58.7264 316.343 56.5408V34.8748H330.312V21.2861H316.343L316.533 7.41211Z" fill="black"/>
        <path d="M380.392 23.947C376.138 21.5241 371.317 20.2777 366.423 20.3359C361.498 20.2791 356.647 21.5248 352.359 23.947C348.254 26.1798 344.811 29.458 342.381 33.4496C339.858 37.9426 338.579 43.0269 338.675 48.1787C338.595 53.317 339.839 58.3895 342.286 62.9078C344.676 67.0542 348.118 70.4963 352.264 72.8854C356.619 75.3243 361.527 76.6049 366.518 76.6049C371.509 76.6049 376.417 75.3243 380.772 72.8854C384.918 70.4963 388.36 67.0542 390.75 62.9078C393.122 58.3608 394.362 53.3077 394.362 48.1787C394.362 43.0497 393.122 37.9966 390.75 33.4496C388.215 29.4078 384.636 26.1249 380.392 23.947ZM366.327 63.0029C364.797 63.011 363.28 62.703 361.874 62.098C360.468 61.493 359.202 60.604 358.156 59.4869C355.949 56.3055 354.766 52.5258 354.766 48.6538C354.766 44.7819 355.949 41.0022 358.156 37.8209C359.219 36.7143 360.496 35.8339 361.908 35.2326C363.321 34.6313 364.84 34.3213 366.376 34.3213C367.911 34.3213 369.43 34.6313 370.842 35.2326C372.254 35.8339 373.531 36.7143 374.595 37.8209C377.135 40.835 378.397 44.7224 378.111 48.6538C378.377 52.5828 377.118 56.463 374.595 59.4869C373.506 60.5552 372.212 61.3922 370.792 61.9474C369.371 62.5026 367.852 62.7647 366.327 62.7178V63.0029Z" fill="black"/>
        <path d="M420.966 61.9575L446.338 33.6396V21.2861H402.626V34.6849H427.238L402.626 62.6227L402.341 63.0028V75.3561H446.813V61.9575H420.966Z" fill="black"/>
        <path d="M236.425 104.148H220.746V179.505H268.829V166.676H236.425V104.148Z" fill="black"/>
        <path d="M387.708 127.906C383.589 125.4 378.844 124.116 374.024 124.201C370.072 124.055 366.158 125.009 362.715 126.956C360.973 128.047 359.376 129.357 357.965 130.852V102.344H342.191V179.791H357.395V174.279C359.06 176.125 361.058 177.64 363.286 178.745C366.638 180.343 370.311 181.156 374.024 181.121C378.844 181.206 383.589 179.921 387.708 177.415C391.721 174.969 395.002 171.49 397.21 167.343C399.582 162.902 400.792 157.932 400.727 152.898C400.779 147.835 399.571 142.839 397.21 138.359C395.046 134.079 391.763 130.467 387.708 127.906ZM380.96 162.781C378.365 165.34 374.866 166.775 371.221 166.775C367.575 166.775 364.076 165.34 361.48 162.781C360.197 161.409 359.201 159.793 358.549 158.031C357.896 156.27 357.6 154.395 357.679 152.518C357.598 150.626 357.892 148.737 358.544 146.96C359.197 145.181 360.195 143.551 361.48 142.16C362.714 140.896 364.194 139.898 365.828 139.227C367.463 138.557 369.217 138.23 370.983 138.264C372.755 138.248 374.512 138.593 376.146 139.279C377.78 139.965 379.257 140.978 380.486 142.255C381.771 143.645 382.769 145.277 383.422 147.054C384.074 148.832 384.368 150.721 384.287 152.613C384.438 154.444 384.221 156.287 383.65 158.033C383.079 159.779 382.165 161.394 380.96 162.781Z" fill="black"/>
        <path d="M454.605 153.373C452.487 151.158 449.838 149.523 446.908 148.621C443.773 147.576 440.446 146.626 436.835 145.771C434.131 145.255 431.489 144.459 428.949 143.395C426.668 142.35 426.667 141.21 426.667 140.83C426.653 140.289 426.787 139.756 427.055 139.286C427.324 138.816 427.715 138.43 428.189 138.169C429.726 137.226 431.521 136.794 433.319 136.933C439.116 136.933 440.352 139.594 440.827 141.684V142.635H455.746V141.304C455.183 136.344 452.692 131.804 448.809 128.666C444.31 125.521 438.898 123.95 433.415 124.2C427.608 123.83 421.866 125.586 417.26 129.141C415.409 130.664 413.92 132.58 412.901 134.749C411.881 136.918 411.359 139.288 411.369 141.684C411.304 144.148 412.001 146.569 413.364 148.621C414.687 150.494 416.407 152.052 418.4 153.183C420.475 154.345 422.675 155.269 424.957 155.939C427.238 156.604 429.519 157.269 431.799 157.744C434.484 158.297 437.122 159.059 439.687 160.025C440.387 160.26 440.986 160.727 441.384 161.349C441.782 161.972 441.954 162.711 441.872 163.446C441.861 164.057 441.71 164.658 441.429 165.202C441.15 165.746 440.748 166.218 440.257 166.581C438.641 167.766 436.643 168.308 434.65 168.102C432.347 168.185 430.08 167.518 428.189 166.201C426.698 165.119 425.651 163.532 425.242 161.735V160.785H409.468V162.116C409.939 165.579 411.316 168.857 413.46 171.618C415.837 174.481 418.867 176.73 422.297 178.175C426.277 179.798 430.543 180.606 434.84 180.55C438.99 180.665 443.112 179.854 446.908 178.175C450.153 176.864 452.933 174.613 454.891 171.713C456.83 168.935 457.799 165.595 457.646 162.21C457.709 158.998 456.632 155.867 454.605 153.373Z" fill="black"/>
        <path d="M304.845 124.199C300.679 124.139 296.543 124.915 292.681 126.48C289.155 127.982 286.054 130.333 283.654 133.322C281.574 136.101 280.264 139.378 279.853 142.824H295.628C296.114 141.397 297.047 140.165 298.288 139.308C300.2 138.134 302.412 137.54 304.655 137.598C307.116 137.535 309.527 138.305 311.496 139.783C312.41 140.678 313.115 141.765 313.559 142.964C314.002 144.163 314.174 145.446 314.063 146.721H302.089C295.835 146.318 289.623 147.988 284.414 151.471C282.491 152.942 280.939 154.843 279.883 157.021C278.827 159.199 278.295 161.594 278.332 164.015C278.313 167.116 279.203 170.155 280.891 172.756C282.581 175.356 284.995 177.406 287.835 178.649C291.443 180.281 295.376 181.061 299.333 180.93C303.278 181.062 307.176 180.039 310.547 177.984C312.484 176.737 314.188 175.162 315.582 173.328V179.599H330.122V146.531C330.288 143.448 329.77 140.365 328.603 137.507C327.436 134.647 325.651 132.083 323.375 129.995C318.144 125.807 311.531 123.738 304.845 124.199ZM309.977 164.68C309.004 165.826 307.773 166.726 306.385 167.304C304.998 167.882 303.492 168.123 301.994 168.007C300.112 168.124 298.244 167.624 296.672 166.581C296.076 166.151 295.597 165.576 295.282 164.912C294.966 164.248 294.823 163.514 294.866 162.78C294.855 162.05 295.014 161.328 295.327 160.668C295.64 160.009 296.1 159.432 296.672 158.979C298.704 157.681 301.117 157.111 303.515 157.363H313.018C312.594 160.008 311.552 162.515 309.977 164.68Z" fill="black"/>
        <mask id="mask1_2225_2" style="mask-type:luminance" maskUnits="userSpaceOnUse" x="3" y="3" width="189" height="177">
            <path d="M191.772 3.22754H3.8623V179.109H191.772V3.22754Z" fill="white"/>
        </mask>
        <g mask="url(#mask1_2225_2)">
            <path d="M47.876 179.109C42.3216 179.111 36.8173 178.057 31.6575 176C23.3414 172.553 16.2489 166.694 11.2944 159.177C6.33985 151.662 3.75065 142.833 3.86064 133.832V86.4377C3.7804 81.6251 4.73199 76.8513 6.65143 72.4369C8.57095 68.0232 11.4137 64.0717 14.9884 60.8485C18.9496 57.4073 23.6996 54.9981 28.8161 53.8348C33.9327 52.6716 39.2574 52.7905 44.3169 54.1808L115.093 73.3726L127.031 58.2355C127.329 57.8434 127.527 57.3855 127.609 56.9007C127.693 56.4157 127.658 55.918 127.507 55.4496C127.357 54.9812 127.096 54.5559 126.747 54.2095C126.397 53.8632 125.969 53.6062 125.5 53.4601L50.3989 31.1595L58.5983 3.22754L141.449 27.8708C147.321 29.4753 152.48 33.0152 156.09 37.9173C159.387 42.5484 161.099 48.1215 160.969 53.805C160.839 59.4886 158.875 64.9777 155.369 69.4536L145.683 81.7524L174.426 89.2757C176.742 89.9147 178.865 91.1161 180.606 92.7725C182.347 94.4288 183.652 96.4902 184.406 98.7718C185.158 101.053 185.337 103.486 184.924 105.854C184.511 108.221 183.521 110.45 182.04 112.343L161.451 138.472H191.951V167.531H132.032C129.848 167.576 127.678 167.158 125.667 166.304C123.655 165.45 121.848 164.179 120.364 162.575C118.154 160.009 116.904 156.753 116.83 153.367C116.756 149.981 117.862 146.674 119.959 144.014L145.503 111.622L126.176 106.396L82.0251 162.395C77.9891 167.605 72.8124 171.822 66.8925 174.719C60.9725 177.617 54.467 179.118 47.876 179.109ZM35.8923 81.933C35.2608 81.9451 34.6479 82.1489 34.1353 82.5187C33.7799 82.7956 33.4933 83.1516 33.298 83.5576C33.1026 83.9643 33.0037 84.4098 33.0091 84.8613V135.318C33.0047 138.346 33.9451 141.301 35.6991 143.77C37.4533 146.238 39.9338 148.097 42.7949 149.089C45.656 150.08 48.7553 150.155 51.6608 149.302C54.5662 148.449 57.1332 146.71 59.0038 144.329L92.9273 101.305C93.2034 100.955 93.3891 100.543 93.4674 100.104C93.5457 99.6654 93.5147 99.2139 93.3762 98.7907C93.2378 98.3668 92.997 97.9841 92.6753 97.6762C92.3537 97.3683 91.9607 97.1447 91.5307 97.0252L36.7033 82.1575L35.8923 81.933Z" fill="black"/>
        </g>
    </g>
</svg>
