<svg width="820" height="205" viewBox="0 0 820 205" fill="none" xmlns="http://www.w3.org/2000/svg">
    <g clip-path="url(#clip0_2210_128)">
        <mask id="mask0_2210_128" style="mask-type:luminance" maskUnits="userSpaceOnUse" x="0" y="0" width="820" height="205">
            <path d="M820 0H0V205H820V0Z" fill="white"/>
        </mask>
        <g mask="url(#mask0_2210_128)">
            <path d="M302.97 81.3158L294.489 89.6524C289.155 83.9808 282.931 81.1794 275.818 81.1794C269.595 81.1794 264.397 83.2294 260.225 87.3294C256.054 91.4294 253.934 96.4174 253.934 102.294C253.934 108.376 256.122 113.501 260.431 117.738C264.808 121.974 270.142 124.093 276.502 124.093C280.674 124.093 284.162 123.204 286.966 121.496C289.839 119.788 292.095 117.054 293.874 113.296H275.613V102.021H307.346L307.415 104.686C307.415 110.221 305.979 115.414 303.106 120.334C300.234 125.254 296.541 129.013 292.027 131.609C287.513 134.206 282.179 135.504 276.024 135.504C269.458 135.504 263.645 134.069 258.516 131.268C253.387 128.398 249.351 124.366 246.342 119.104C243.333 113.843 241.897 108.171 241.897 102.089C241.897 93.7524 244.632 86.5091 250.172 80.3591C256.738 73.0474 265.218 69.3574 275.682 69.3574C281.153 69.3574 286.282 70.3824 291.07 72.3641C295.173 74.2091 299.139 77.1474 302.97 81.3158Z" fill="white"/>
            <path d="M384.013 69.4277H397.348C404.666 69.4277 409.863 70.1111 412.942 71.4094C416.017 72.7077 418.548 74.8944 420.397 77.9011C422.31 80.9077 423.198 84.5294 423.198 88.6294C423.198 93.0027 422.173 96.6244 420.052 99.5627C418.002 102.501 414.855 104.688 410.615 106.191L426.277 135.574H412.532L397.621 107.558H396.665V135.574H384.081V69.4277H384.013ZM396.665 95.2577H400.631C404.666 95.2577 407.4 94.7111 408.907 93.6861C410.41 92.6611 411.162 90.8844 411.162 88.4244C411.162 86.9894 410.82 85.7594 410.068 84.6661C409.317 83.5727 408.292 82.8211 407.058 82.3427C405.828 81.8644 403.501 81.6594 400.153 81.6594H396.665V95.2577Z" fill="white"/>
            <path d="M431.952 69.4277H444.467V135.574H431.952V69.4277Z" fill="white"/>
            <path d="M486.462 69.4277H499.045V123.548H517.372V135.574H486.393V69.4277H486.462Z" fill="white"/>
            <path d="M450.009 69.4277H462.593V123.548H480.92V135.574H450.009V69.4277Z" fill="white"/>
            <path d="M548.491 69.4277H561.28L586.72 135.574H573.59L568.393 121.976H541.378L535.976 135.574H522.846L548.491 69.4277ZM554.986 86.9894L546.096 109.676H563.812L554.986 86.9894Z" fill="white"/>
            <path d="M695.189 69.4277C704.079 69.4277 711.808 72.6394 718.166 79.1311C724.596 85.5544 727.811 93.4127 727.811 102.706C727.811 111.931 724.665 119.653 718.303 126.008C711.944 132.363 704.284 135.574 695.257 135.574C685.817 135.574 677.952 132.294 671.662 125.803C665.368 119.243 662.293 111.521 662.293 102.501C662.293 96.4877 663.728 90.9527 666.67 85.8961C669.609 80.8394 673.575 76.8077 678.707 73.8694C683.836 70.9311 689.306 69.4277 695.189 69.4277ZM695.121 81.1811C689.306 81.1811 684.382 83.2311 680.415 87.2627C676.449 91.2944 674.467 96.4877 674.467 102.706C674.467 109.676 676.995 115.211 681.987 119.243C685.886 122.386 690.334 124.026 695.394 124.026C701.069 124.026 705.924 121.976 709.959 117.876C713.994 113.776 715.98 108.719 715.98 102.706C715.98 96.6927 713.994 91.6361 709.959 87.4677C705.788 83.2311 700.864 81.1811 695.121 81.1811Z" fill="white"/>
            <path d="M345.849 69.4277C354.742 69.4277 362.467 72.6394 368.829 79.1311C375.191 85.6227 378.471 93.4127 378.471 102.706C378.471 111.931 375.328 119.653 368.966 126.008C362.607 132.363 354.947 135.574 345.917 135.574C336.481 135.574 328.616 132.294 322.324 125.803C316.032 119.243 312.954 111.521 312.954 102.501C312.954 96.4877 314.391 90.9527 317.331 85.8961C320.272 80.8394 324.239 76.8077 329.368 73.8694C334.497 70.9311 339.969 69.4277 345.849 69.4277ZM345.78 81.1811C339.969 81.1811 335.044 83.2311 331.078 87.2627C327.111 91.2944 325.128 96.4877 325.128 102.706C325.128 109.676 327.658 115.211 332.651 119.243C336.549 122.386 340.995 124.026 346.054 124.026C351.732 124.026 356.587 121.976 360.622 117.876C364.657 113.776 366.642 108.719 366.642 102.706C366.642 96.6927 364.657 91.6361 360.622 87.4677C356.451 83.2311 351.527 81.1811 345.78 81.1811Z" fill="white"/>
            <path d="M733.35 135.574V69.4277H743.743C749.763 69.4277 754.209 69.8377 757.014 70.5894C760.98 71.6144 764.124 73.5961 766.45 76.4661C768.777 79.3361 769.939 82.6844 769.939 86.5111C769.939 89.0394 769.392 91.2944 768.364 93.3444C767.27 95.3944 765.562 97.3077 763.167 99.1527C767.202 101.066 770.144 103.389 771.989 106.259C773.837 109.061 774.794 112.409 774.794 116.304C774.794 119.994 773.837 123.411 771.921 126.486C770.007 129.561 767.544 131.816 764.469 133.319C761.459 134.823 757.219 135.574 751.882 135.574H733.35ZM746.002 81.4544V95.3944H748.739C751.814 95.3944 754.072 94.7794 755.575 93.4811C757.082 92.1827 757.834 90.4061 757.834 88.2194C757.834 86.1694 757.15 84.5294 755.712 83.2994C754.277 82.0694 752.155 81.4544 749.285 81.4544H746.002ZM746.002 106.601V123.548H749.148C754.414 123.548 757.902 122.864 759.747 121.566C761.595 120.268 762.484 118.354 762.484 115.826C762.484 112.956 761.39 110.701 759.269 109.061C757.15 107.421 753.594 106.601 748.602 106.601H746.002Z" fill="white"/>
            <path d="M818.838 79.5391L809.948 87.3974C806.802 83.0924 803.655 80.9057 800.44 80.9057C798.868 80.9057 797.57 81.3157 796.61 82.1357C795.585 82.9557 795.106 83.9124 795.106 85.0057C795.106 86.0307 795.448 87.0557 796.2 88.0124C797.156 89.2424 800.098 91.9757 805.021 96.0757C809.607 99.9024 812.408 102.294 813.365 103.319C815.828 105.779 817.537 108.102 818.565 110.357C819.59 112.612 820.068 115.072 820.068 117.669C820.068 122.862 818.292 127.099 814.735 130.447C811.178 133.796 806.528 135.504 800.781 135.504C796.268 135.504 792.37 134.411 789.021 132.224C785.669 130.037 782.864 126.552 780.469 121.837L790.525 115.756C793.535 121.291 797.02 124.092 800.986 124.092C803.04 124.092 804.748 123.477 806.187 122.316C807.553 121.086 808.305 119.719 808.305 118.147C808.305 116.712 807.758 115.277 806.733 113.842C805.708 112.407 803.313 110.221 799.756 107.282C792.916 101.679 788.471 97.3741 786.421 94.2991C784.436 91.2924 783.411 88.2174 783.411 85.2107C783.411 80.8374 785.054 77.0791 788.403 74.0041C791.755 70.8607 795.858 69.2891 800.713 69.2891C803.86 69.2891 806.87 70.0407 809.675 71.4757C812.477 73.0474 815.555 75.7124 818.838 79.5391Z" fill="white"/>
            <path d="M644.783 69.4277V118.969C644.783 121.498 642.733 123.548 640.201 123.548C637.673 123.548 635.619 121.498 635.619 118.969H623.583C623.583 128.126 631.038 135.574 640.201 135.574C649.365 135.574 656.82 128.126 656.82 118.969V69.4277H644.783Z" fill="white"/>
            <path d="M106.5 201C160.9 201 205 156.9 205 102.5C205 48.1001 160.9 4 106.5 4C52.1001 4 8 48.1001 8 102.5C8 156.9 52.1001 201 106.5 201Z" fill="white"/>
            <path d="M107.373 100.723C107.441 101.475 107.441 102.226 107.373 102.978C107.305 104.14 107.099 105.37 106.757 106.463C108.33 108.718 109.356 111.178 110.314 113.706C110.724 114.731 111.066 115.825 111.271 116.986C112.092 121.018 111.271 122.043 111.955 121.77C112.571 121.496 113.186 121.291 113.802 121.018C116.606 119.856 119.273 118.49 121.735 116.713C124.129 115.005 126.18 113.023 127.753 110.563C129.668 107.625 130.626 104.345 130.694 100.791C130.694 99.6982 130.626 98.6048 130.352 97.5115C129.531 93.4798 127.958 89.7215 125.77 86.2365C124.881 84.8015 123.855 83.5032 122.692 82.2732C122.35 81.8632 122.008 81.7265 121.53 81.7265C120.367 81.6582 119.341 81.2482 118.52 80.3598C117.358 79.1982 117.221 77.6265 117.289 76.0548C117.358 75.2348 117.495 74.4148 117.905 73.6632C118.042 73.3215 118.042 73.2532 117.768 73.1165C116.058 72.2282 114.691 70.8615 114.212 68.6748C114.075 67.9915 114.075 67.3082 114.28 66.6248C114.554 65.4632 114.896 64.3698 115.922 63.6865C116.606 63.2082 117.358 63.0715 118.247 63.0032C120.846 62.9348 123.444 63.1398 126.044 62.8665C126.727 62.7982 127.343 62.6615 128.027 62.3882C128.027 61.9098 128.027 61.4998 127.958 61.0215C127.753 59.8598 127.275 58.7665 126.796 57.7415C126.18 56.5115 125.428 55.3498 124.607 54.2565C123.376 52.6165 122.008 51.1132 120.504 49.8148C119.615 49.0632 118.657 48.3798 117.7 47.8332C116.4 47.0815 115.033 46.8082 113.528 47.0132C112.229 47.1498 110.929 47.3548 109.63 47.7648C107.236 48.5848 105.184 49.9515 103.338 51.7282C101.491 53.5048 99.9867 55.4182 98.5507 57.5365C96.2253 60.9532 94.3102 64.5065 92.3955 68.1282C92.1219 68.6065 92.1219 68.6065 91.5749 68.5382C90.4122 68.4698 89.2495 68.2648 88.0868 68.4015C86.9924 68.5382 85.9667 68.6065 84.8724 68.9482C82 69.6998 79.5379 71.1348 77.5546 73.3898C75.6399 75.5765 74.6138 78.1732 74.4772 81.1115C74.4088 82.2048 74.5455 83.2982 74.7508 84.3232C75.2979 86.9198 76.2552 89.3115 77.9649 91.2932C78.3752 91.7715 78.3752 92.1132 78.1702 92.5915C77.5546 94.1632 77.2129 95.8032 77.1442 97.5115C75.8449 97.6482 71.6048 98.0582 70.3738 98.5365C68.6641 99.2198 67.1594 100.176 65.9967 101.611C64.4923 103.525 63.8766 105.711 63.74 108.103C63.6716 109.333 63.945 110.563 64.1503 111.725C64.1503 111.861 64.2186 111.93 64.082 112.066C63.8766 112.271 63.74 112.476 63.5346 112.613C62.0986 114.048 61.0726 115.688 60.3889 117.533C59.1579 120.608 58.6788 123.888 58.4738 127.236C58.4055 128.33 58.4055 129.355 58.4055 130.448V130.516C58.0635 131.063 57.7898 131.678 57.5165 132.225C56.6958 133.796 56.0118 135.368 55.8065 137.145C55.6015 139.126 56.2855 140.835 57.8582 142.201C58.6788 142.885 59.7049 143.226 60.7992 143.226C65.313 143.226 69.8951 143.226 74.4088 143.226C74.8875 143.226 75.3662 143.09 75.7765 142.816C77.0759 141.996 77.6232 140.698 76.6655 138.99C76.2552 138.238 75.4345 137.828 74.6138 137.828C73.1095 137.828 71.6048 137.828 70.1001 137.828C69.8951 137.828 69.7581 137.828 69.9634 137.555C70.4421 136.735 70.9208 135.846 71.3994 135.026C72.5621 133.25 73.3828 131.268 73.9302 129.15C74.2035 128.056 74.5455 127.031 74.5455 125.938C74.5455 124.981 74.5455 124.025 74.5455 123.068C74.5455 122.795 74.6138 122.726 74.8875 122.795C77.1442 123.41 79.4013 124.23 81.8633 124.366C82.8207 124.435 89.0441 123.546 90.0018 123.478C90.4805 125.05 91.0275 126.621 91.6432 128.193C92.3955 130.175 93.2846 132.02 94.2419 133.933C94.3786 134.206 94.3786 134.343 94.0369 134.411C93.4212 134.548 92.8059 134.685 92.1902 134.821C90.6855 135.163 89.3178 135.641 88.2921 137.145C87.7448 137.965 87.6764 139.058 88.1551 140.015C89.2495 142.065 90.9592 143.158 93.2162 143.226C95.4729 143.295 97.73 143.226 99.9184 143.226C102.107 143.226 104.295 143.226 106.415 143.226C106.757 143.226 107.031 143.226 107.373 143.158C109.561 142.816 110.998 141.518 111.682 139.468C112.092 138.17 111.887 136.803 111.682 135.505C111.408 134.001 110.929 132.566 110.177 131.2C109.698 130.38 109.22 129.628 108.604 128.945C108.467 128.74 108.399 128.535 108.467 128.33C108.878 127.1 108.878 125.801 108.946 124.503C109.014 123.615 109.014 122.726 108.946 121.838C108.878 120.676 108.741 119.446 108.536 118.285C108.125 115.756 107.305 113.296 106.142 110.973C105.389 109.47 104.5 108.035 103.543 106.668C103.748 106.121 104.022 105.575 104.158 104.96" fill="black"/>
            <path d="M149.433 137.076C149.296 135.709 148.954 134.479 148.339 133.249C147.928 132.497 147.449 131.746 146.971 131.062C146.834 130.857 146.766 130.721 146.766 130.447C146.766 129.627 146.697 128.876 146.629 128.056C146.492 126.416 146.15 124.844 145.74 123.341C144.919 120.334 143.551 117.532 141.568 115.072C141.431 114.936 141.363 114.731 141.363 114.594C141.363 113.432 141.363 112.202 141.294 111.041C141.226 109.332 141.157 107.692 140.884 105.984C140.61 104.207 140.132 102.499 139.448 100.927C138.695 99.219 137.601 97.784 136.233 96.554C136.097 96.4174 136.028 96.2807 136.028 96.0074C136.028 94.5724 136.028 93.1374 135.823 91.7024C135.618 89.994 135.276 88.354 134.729 86.714C134.045 84.7324 133.019 82.8874 131.378 81.4524C130.352 80.4957 129.121 79.8124 127.685 79.4707C127.548 79.4707 127.48 79.4707 127.411 79.539C126.864 80.2224 126.18 80.7007 125.496 81.1107C125.291 81.2474 125.36 81.3157 125.428 81.4524C125.633 81.6574 125.838 81.9307 126.043 82.1357C127.069 83.434 127.958 84.7324 128.779 86.1674C130.352 88.9007 131.651 91.839 132.472 94.914C133.087 97.2374 133.429 99.629 133.224 102.021C133.087 103.524 132.882 104.959 132.472 106.394C131.583 109.606 129.942 112.407 127.753 114.867C127.548 115.141 127.069 115.346 127.138 115.619C127.206 115.892 127.616 116.029 127.958 116.234C128.711 116.712 129.531 116.986 130.284 117.396C130.42 117.464 130.557 117.532 130.557 117.737C130.557 118.626 130.694 119.582 130.762 120.471C130.899 121.974 131.104 123.477 131.378 124.981C131.925 127.714 132.677 130.447 133.566 133.112C133.771 133.727 133.771 133.727 133.224 134.137C132.677 134.479 132.13 134.821 131.72 135.299C130.694 136.461 130.42 137.896 130.762 139.399C131.241 141.517 133.566 143.294 135.755 143.431C137.191 143.499 138.559 143.431 139.995 143.431C141.226 143.431 142.525 143.431 143.756 143.431C144.304 143.431 144.851 143.431 145.398 143.294C147.039 142.952 148.27 142.064 148.886 140.424C149.433 139.331 149.501 138.237 149.433 137.076Z" fill="black"/>
            <path d="M127.89 66.4875C127.548 65.8042 126.796 65.5992 126.18 65.8725C126.112 65.7358 125.907 65.7358 125.77 65.7358C124.539 65.7358 123.239 65.7358 122.008 65.7358C121.872 65.7358 121.803 65.6675 121.667 65.8042C121.461 65.7358 121.187 65.7358 120.982 65.8042C120.914 65.8042 120.914 65.7358 120.846 65.7358C119.956 65.7358 119.067 65.7358 118.178 65.7358C117.836 65.7358 117.426 65.7358 117.221 66.2142C116.879 66.9658 116.742 67.7175 117.016 68.5375C117.426 69.7675 118.384 70.4508 119.478 70.9292C120.093 71.2025 120.777 71.5442 121.393 71.8175C121.529 71.8858 121.598 71.9542 121.53 72.1592C121.325 72.5692 121.187 72.9108 120.982 73.3208C120.572 74.2092 120.162 75.0292 120.093 75.9858C120.025 76.3275 119.888 76.7375 120.025 77.1475C120.025 77.2842 120.093 77.4208 120.093 77.5575C120.093 78.1042 120.367 78.4458 120.777 78.7875C121.187 79.0608 121.598 79.0608 122.008 79.1292C123.787 79.4708 125.291 78.3092 126.043 76.8742C126.18 76.8058 126.249 76.6008 126.317 76.4642C126.454 76.3958 126.454 76.2592 126.522 76.1908C127.001 75.4392 127.274 74.6192 127.616 73.7992C127.685 73.3892 127.822 72.9792 127.89 72.5692C127.958 72.2275 128.095 71.8858 127.89 71.6125C127.958 71.5442 127.958 71.4758 127.958 71.3392C127.958 70.7242 127.822 70.1775 127.616 69.6308C127.48 69.1525 127.206 68.7425 127.411 68.2642C128.095 67.7175 128.163 67.0342 127.89 66.4875Z" fill="black"/>
        </g>
    </g>
    <defs>
        <clipPath id="clip0_2210_128">
            <rect width="820" height="205" fill="white"/>
        </clipPath>
    </defs>
</svg>
