<svg width="455" height="455" viewBox="0 0 455 455" fill="none" xmlns="http://www.w3.org/2000/svg">
    <path d="M393.07 152.93L283.87 141.808C279.825 141.555 276.792 140.797 272.747 146.105L252.272 176.186C249.745 179.724 248.986 184.527 251.514 187.813L264.911 203.233C267.186 206.519 271.231 207.277 273.758 203.233L287.914 183.263C290.189 179.977 290.947 177.702 295.75 177.702L337.458 182.505C341.756 182.758 344.789 184.527 341.756 188.572L277.045 270.472C273 276.033 268.45 276.286 265.164 271.23L231.797 226.741C230.786 224.972 229.017 224.719 227.247 224.972C225.731 224.972 224.214 225.224 222.95 226.741L189.583 271.736C186.297 276.791 181.747 276.286 177.703 270.977L112.233 187.813C110.211 185.286 112.486 183.516 115.267 183.011L158.745 177.702C163.547 177.449 164.558 179.977 166.581 183.263L180.736 203.233C183.517 207.277 187.308 206.519 189.583 203.233L202.981 187.813C205.508 184.274 204.75 179.724 202.222 176.186L181.747 146.105C177.703 140.544 174.67 141.555 170.625 141.808L61.4251 152.93C45.2473 153.688 46.0057 166.833 50.3029 172.647L172.395 334.677C176.439 339.986 187.814 340.491 191.1 334.677L224.72 286.144C225.478 284.88 226.489 284.122 226.995 283.869C227.753 284.122 228.511 284.88 229.27 286.144L262.889 334.677C266.175 340.238 277.55 339.986 281.595 334.677L403.686 172.647C408.742 166.58 409.5 153.436 393.07 152.93Z" fill="black"/>
</svg>
