<svg width="617" height="256" viewBox="0 0 617 256" fill="none" xmlns="http://www.w3.org/2000/svg">
    <path d="M69.8151 158.697C70.4578 159.982 71.7433 161.267 73.6714 161.267H75.5995C77.5276 161.267 78.813 159.982 79.4558 158.697L149.511 7.0675C150.796 3.855 148.868 1.285 145.655 1.285H122.517C120.589 1.285 119.304 2.57 118.661 3.855L75.5995 100.23H74.3141L31.2526 3.855C30.6099 2.57 28.6818 1.285 26.7537 1.285H4.25888C1.04534 1.285 -0.882784 4.4975 0.402633 7.0675L69.8151 158.697ZM169.435 154.842C169.435 156.77 171.363 159.34 173.934 159.34H195.143C197.071 159.34 199.642 157.412 199.642 154.842V5.7825C199.642 3.855 197.714 1.285 195.143 1.285H173.934C172.006 1.285 169.435 3.2125 169.435 5.7825V154.842ZM231.778 143.92C236.277 148.417 252.987 161.267 281.266 161.267C312.759 161.267 332.683 140.065 332.683 116.935C332.683 88.0225 307.617 75.1725 285.765 66.1775C267.769 58.4675 259.414 51.4 259.414 41.12C259.414 34.0525 266.484 25.7 279.338 25.7C291.55 25.7 308.903 36.6225 310.831 37.9075C313.402 39.835 316.615 37.9075 318.543 35.3375L326.898 22.4875C328.184 20.56 327.541 16.705 325.613 14.7775C321.114 11.565 303.761 0 280.623 0C244.632 0 229.85 23.13 229.85 43.0475C229.85 69.39 251.059 82.8825 272.268 91.8775C290.907 99.5875 300.547 107.297 300.547 118.862C300.547 128.5 291.549 136.21 279.981 136.21C265.198 136.21 247.203 122.717 245.917 122.075C243.989 120.79 240.133 120.79 238.205 123.36L231.135 136.852C229.207 140.707 229.85 141.35 231.778 143.92ZM359.677 99.5875C359.677 133.64 386.67 161.267 422.019 161.267C457.368 161.267 485.005 133.64 485.005 99.5875V5.7825C485.005 3.855 483.077 1.285 480.506 1.285H459.296C456.726 1.285 454.797 3.2125 454.797 5.7825V97.66C454.797 116.292 441.301 131.712 422.019 131.712C402.738 131.712 389.241 116.935 389.241 97.66V5.7825C389.241 3.855 387.313 1.285 384.742 1.285H363.533C361.605 1.285 359.034 3.2125 359.034 5.7825V99.5875H359.677ZM515.855 143.92C520.354 148.417 537.064 161.267 565.343 161.267C596.836 161.267 616.76 140.065 616.76 116.935C616.76 88.0225 591.694 75.1725 569.842 66.1775C551.846 58.4675 543.491 51.4 543.491 41.12C543.491 34.0525 550.561 25.7 563.415 25.7C575.627 25.7 592.98 36.6225 594.908 37.9075C597.479 39.835 600.692 37.9075 602.62 35.3375L610.976 22.4875C612.261 20.56 611.618 16.705 609.69 14.7775C605.191 11.565 587.838 0 564.701 0C528.709 0 513.927 23.13 513.927 43.0475C513.927 69.39 535.136 82.8825 556.345 91.8775C574.984 99.5875 584.625 107.297 584.625 118.862C584.625 128.5 575.627 136.21 564.058 136.21C549.276 136.21 531.28 122.717 529.994 122.075C528.066 120.79 524.21 120.79 522.282 123.36L513.927 137.495C512.641 140.707 513.284 141.35 515.855 143.92Z" fill="white"/>
    <path d="M62.7451 223.59C62.7451 205.6 76.8847 191.465 94.2378 191.465C111.591 191.465 126.373 205.6 126.373 223.59C126.373 241.58 112.234 255.072 94.2378 255.072C76.242 255.072 62.7451 240.937 62.7451 223.59ZM74.3139 223.59C74.3139 234.512 83.3118 244.15 94.8805 244.15C106.449 244.15 115.447 235.155 115.447 223.59C115.447 212.667 106.449 203.03 94.8805 203.03C83.3118 203.03 74.3139 212.025 74.3139 223.59ZM133.443 223.59C133.443 205.6 147.583 191.465 164.936 191.465C182.289 191.465 197.071 205.6 197.071 223.59C197.071 241.58 182.932 255.072 164.936 255.072C146.94 255.072 133.443 240.937 133.443 223.59ZM145.012 223.59C145.012 234.512 154.01 244.15 165.578 244.15C176.504 244.15 186.145 235.155 186.145 223.59C186.145 212.667 177.147 203.03 165.578 203.03C154.01 203.03 145.012 212.025 145.012 223.59ZM204.141 223.59C204.141 241.58 218.281 255.072 235.634 255.072C248.488 255.072 257.486 249.29 257.486 249.29C258.128 249.29 258.128 248.647 258.128 248.005V225.517C258.128 224.875 257.486 223.59 256.843 223.59H240.133C238.847 223.59 238.204 224.232 238.204 225.517V232.585C238.204 233.227 238.847 233.87 240.133 233.87H247.202V241.58C245.274 242.222 241.418 243.507 236.919 243.507C225.993 243.507 216.995 234.512 216.995 222.947C216.995 212.025 225.993 202.387 236.919 202.387C242.061 202.387 246.56 204.315 250.416 207.527C251.059 208.17 251.701 208.17 252.987 207.527L258.771 201.745C259.414 201.102 259.414 199.817 258.771 199.175C251.701 194.677 243.989 191.465 236.276 191.465C218.281 191.465 204.141 205.6 204.141 223.59ZM271.625 251.86C271.625 253.145 272.268 253.787 273.553 253.787H281.266C282.551 253.787 283.194 252.502 283.194 251.86V224.875L306.332 253.145C306.332 253.145 306.974 253.787 307.617 253.787H317.258C319.186 253.787 319.828 251.86 318.543 250.575L293.477 221.02L316.615 194.677C317.9 193.392 316.615 191.465 315.329 191.465H306.332C305.689 191.465 305.046 192.107 304.403 192.107L281.909 217.165V193.392C281.909 192.107 280.623 191.465 279.981 191.465H272.268C270.983 191.465 270.34 192.75 270.34 193.392V251.86H271.625ZM329.469 252.502C329.469 253.145 330.112 254.43 331.397 254.43H363.533C364.818 254.43 365.461 253.787 365.461 252.502V245.435C365.461 244.792 364.818 243.507 363.533 243.507H341.038V194.035C341.038 193.392 340.395 192.107 339.11 192.107H330.755C329.469 192.107 328.826 192.75 328.826 194.035V252.502H329.469ZM374.459 252.502C374.459 253.145 375.101 254.43 376.387 254.43H384.742C385.385 254.43 386.67 253.787 386.67 252.502V194.035C386.67 193.392 386.027 192.107 384.742 192.107H376.387C375.744 192.107 374.459 192.75 374.459 194.035V252.502ZM402.095 252.502C402.095 253.145 402.738 254.43 404.023 254.43H412.378C413.664 254.43 414.307 253.787 414.307 252.502V214.595L451.584 255.072H453.512C454.155 255.072 455.44 254.43 455.44 253.787V194.035C455.44 193.392 454.797 192.107 453.512 192.107H445.157C443.871 192.107 443.228 192.75 443.228 194.035V230.657L405.951 191.465H404.023C403.381 191.465 402.095 192.107 402.095 192.75V252.502ZM470.865 252.502C470.865 253.145 471.508 254.43 472.793 254.43H481.148C481.791 254.43 483.076 253.787 483.076 252.502V194.035C483.076 193.392 482.434 192.107 481.148 192.107H472.793C472.15 192.107 470.865 192.75 470.865 194.035V252.502ZM498.501 252.502C498.501 253.145 499.144 254.43 500.43 254.43H536.421C537.707 254.43 538.349 253.787 538.349 252.502V245.435C538.349 244.792 537.707 243.507 536.421 243.507H510.07V228.087H531.922C532.565 228.087 533.85 227.445 533.85 226.16V219.092C533.85 218.45 533.208 217.165 531.922 217.165H510.07V202.387H536.421C537.707 202.387 538.349 201.745 538.349 200.46V193.392C538.349 192.75 537.707 191.465 536.421 191.465H500.43C499.144 191.465 498.501 192.107 498.501 193.392V252.502ZM550.561 251.86C550.561 253.145 551.203 253.787 552.489 253.787H560.201C561.487 253.787 562.129 252.502 562.129 251.86V224.875L585.267 253.145C585.267 253.145 585.91 253.787 586.552 253.787H596.193C598.121 253.787 598.764 251.86 597.478 250.575L572.413 221.02L595.55 194.677C596.836 193.392 595.55 191.465 594.265 191.465H585.267C584.624 191.465 583.982 192.107 583.339 192.107L560.844 217.165V193.392C560.844 192.107 559.559 191.465 558.916 191.465H552.489C551.203 191.465 550.561 192.75 550.561 193.392V251.86Z" fill="white"/>
</svg>
